HIERARCHY
ROOT Hips
{
	OFFSET	0.00	0.00	0.00
	CHANNELS 6 Xposition Yposition Zposition Zrotation Xrotation Yrotation
	JOINT LeftUpLeg
	{
		OFFSET	 0.126116	-0.065224	 0.014019
		CHANNELS 3 Zrotation Xrotation Yrotation
		JOINT LeftLeg
		{
			OFFSET	 0.000000	 0.569914	 0.000000
			CHANNELS 3 Zrotation Xrotation Yrotation
			JOINT LeftFoot
			{
				OFFSET	 0.000000	 0.544423	 0.000000
				CHANNELS 3 Zrotation Xrotation Yrotation
				JOINT LeftToeBase
				{
					OFFSET	 0.000000	 0.207117	 0.000000
					CHANNELS 3 Zrotation Xrotation Yrotation
					End Site
					{
						OFFSET	 0.000000	 0.207117	 0.000000
					}
				}
			}
		}
	}
	JOINT RightUpLeg
	{
		OFFSET	-0.124023	-0.065224	 0.008373
		CHANNELS 3 Zrotation Xrotation Yrotation
		JOINT RightLeg
		{
			OFFSET	 0.000000	 0.570047	 0.000000
			CHANNELS 3 Zrotation Xrotation Yrotation
			JOINT RightFoot
			{
				OFFSET	 0.000000	 0.544354	 0.000000
				CHANNELS 3 Zrotation Xrotation Yrotation
				JOINT RightToeBase
				{
					OFFSET	 0.000000	 0.207540	 0.000000
					CHANNELS 3 Zrotation Xrotation Yrotation
					End Site
					{
						OFFSET	 0.000000	 0.207540	 0.000000
					}
				}
			}
		}
	}
	JOINT Spine
	{
		OFFSET	 0.000184	 0.117403	 0.007763
		CHANNELS 3 Zrotation Xrotation Yrotation
		JOINT Spine1
		{
			OFFSET	 0.000000	 0.137269	 0.000000
			CHANNELS 3 Zrotation Xrotation Yrotation
			JOINT Spine2
			{
				OFFSET	 0.000000	 0.156879	 0.000000
				CHANNELS 3 Zrotation Xrotation Yrotation
				JOINT LeftShoulder
				{
					OFFSET	 0.080501	 0.160143	 0.002496
					CHANNELS 3 Zrotation Xrotation Yrotation
					JOINT LeftArm
					{
						OFFSET	 0.000000	 0.164363	 0.000000
						CHANNELS 3 Zrotation Xrotation Yrotation
						JOINT LeftForeArm
						{
							OFFSET	 0.000000	 0.364576	 0.000000
							CHANNELS 3 Zrotation Xrotation Yrotation
							JOINT LeftHand
							{
								OFFSET	 0.000000	 0.360812	 0.000000
								CHANNELS 3 Zrotation Xrotation Yrotation
								JOINT LeftHandIndex1
								{
									OFFSET	 0.000000	 0.086006	 0.000000
									CHANNELS 3 Zrotation Xrotation Yrotation
									JOINT LeftHandIndex2
									{
										OFFSET	 0.000000	 0.047237	 0.000000
										CHANNELS 3 Zrotation Xrotation Yrotation
										JOINT LeftHandIndex3
										{
											OFFSET	-0.004284	 0.038165	 0.000551
											CHANNELS 3 Zrotation Xrotation Yrotation
											End Site
											{
												OFFSET	-0.004284	 0.038165	 0.000551
											}
										}
									}
								}
							}
						}
					}
				}
				JOINT Neck
				{
					OFFSET	 0.000000	 0.176489	 0.000000
					CHANNELS 3 Zrotation Xrotation Yrotation
					JOINT Head
					{
						OFFSET	 0.000000	 0.077941	 0.001747
						CHANNELS 3 Zrotation Xrotation Yrotation
						End Site
						{
							OFFSET	 0.000000	 0.077941	 0.001747
						}
					}
				}
				JOINT RightShoulder
				{
					OFFSET	-0.080363	 0.159706	-0.000306
					CHANNELS 3 Zrotation Xrotation Yrotation
					JOINT RightArm
					{
						OFFSET	 0.000000	 0.164196	 0.000000
						CHANNELS 3 Zrotation Xrotation Yrotation
						JOINT RightForeArm
						{
							OFFSET	 0.000000	 0.365611	 0.000000
							CHANNELS 3 Zrotation Xrotation Yrotation
							JOINT RightHand
							{
								OFFSET	 0.000000	 0.360648	 0.000000
								CHANNELS 3 Zrotation Xrotation Yrotation
								JOINT RightHandIndex1
								{
									OFFSET	 0.000000	 0.069977	 0.000000
									CHANNELS 3 Zrotation Xrotation Yrotation
									JOINT RightHandIndex2
									{
										OFFSET	 0.000000	 0.052305	 0.000000
										CHANNELS 3 Zrotation Xrotation Yrotation
										JOINT RightHandIndex3
										{
											OFFSET	 0.009002	 0.042196	 0.000782
											CHANNELS 3 Zrotation Xrotation Yrotation
											End Site
											{
												OFFSET	 0.009002	 0.042196	 0.000782
											}
										}
									}
								}
							}
						}
					}
				}
			}
		}
	}
}
MOTION
Frames:    12
Frame Time: 0.03333334
-0.000923	 1.270198	-0.008645	-0.004359	 3.209568	 178.790000	-176.834700	 2.845557	-22.112420	 2.974788	-14.728080	 2.847650	-5.631732	 68.708560	 6.731634	 1.331492	 28.938720	-2.729976	 176.335200	 4.015104	 25.623470	-5.027695	-16.125720	-6.438908	 3.177027	 69.931050	-1.942344	-1.305361	 28.580650	 2.604553	-1.086127	 3.347409	-1.046148	-1.645694	 3.501862	-1.240414	-1.664126	-2.101110	-0.652103	-113.447100	 5.126183	 93.000080	 47.878820	 40.968200	 4.953021	 4.562223	-0.232630	-0.133514	-20.183610	-4.962882	-15.320340	-6.580301	 5.266122	 0.000000	 0.000000	 0.000000	 0.000000	 0.000000	 0.000000	 0.000000	 3.830678	-0.645819	-0.250360	 3.211680	 1.182794	 1.443819	 114.205600	-4.427742	-88.482960	-64.884810	-2.475694	 44.790940	-89.949270	-2.250633	-2.133479	-15.243890	-26.920270	-28.864090	-0.359781	 10.582440	 0.744568	 11.977790	 9.317307	-2.096064	-8.359142	 3.150334	 0.104224
-0.000897	 1.271146	-0.008703	 0.002627	 3.210657	 178.776000	-176.794300	 2.838333	-22.360740	 2.976043	-14.733990	 2.841640	-5.608355	 68.534530	 6.714848	 1.331492	 28.938720	-2.729976	 176.312800	 4.006282	 25.848210	-5.026003	-16.120610	-6.448800	 3.147889	 69.765810	-1.912793	-1.305365	 28.580680	 2.603464	-1.069421	 3.348985	-1.340660	-1.640779	 3.507822	-1.233152	-1.667105	-2.111038	-0.650065	-113.447100	 5.123853	 92.999560	 47.775250	 41.000170	 5.041130	 4.696934	-0.233076	-0.253615	-20.164510	-5.138969	-15.434600	-6.580301	 5.266122	 0.000000	 0.000000	 0.000000	 0.000000	 0.000000	 0.000000	 0.000000	 3.834435	-0.654441	-0.251530	 3.225806	 1.187615	 1.435688	 114.204900	-4.423167	-88.486270	-64.706550	-2.715356	 44.479450	-90.237090	-2.245675	-2.024154	-15.591730	-26.723130	-28.742720	-0.359780	 10.582410	 0.744568	 11.977790	 9.317284	-2.096060	-8.359142	 3.150322	 0.104225
-0.000859	 1.272084	-0.008771	 0.011125	 3.211969	 178.759100	-176.751700	 2.830657	-22.609850	 2.977484	-14.740840	 2.834327	-5.590201	 68.362020	 6.702704	 1.331492	 28.938720	-2.729976	 176.293400	 3.996325	 26.069060	-5.023807	-16.113950	-6.460716	 3.114431	 69.603160	-1.878000	-1.305370	 28.580700	 2.602149	-1.049263	 3.350743	-1.696407	-1.635579	 3.514494	-1.224730	-1.670361	-2.122774	-0.647594	-113.447200	 5.121082	 92.998970	 47.640480	 41.062180	 5.152520	 4.858339	-0.233582	-0.398432	-20.136700	-5.375226	-15.578440	-6.580301	 5.266122	 0.000000	 0.000000	 0.000000	 0.000000	 0.000000	 0.000000	 0.000000	 3.838969	-0.664845	-0.252942	 3.242849	 1.193495	 1.425871	 114.204100	-4.417624	-88.490300	-64.503710	-2.973053	 44.085540	-90.644960	-2.239602	-1.894697	-15.989590	-26.501630	-28.631050	-0.359779	 10.582390	 0.744568	 11.977790	 9.317256	-2.096054	-8.359142	 3.150308	 0.104227
-0.000805	 1.273039	-0.008853	 0.021285	 3.213538	 178.738800	-176.705600	 2.822454	-22.866790	 2.979323	-14.749540	 2.825610	-5.577027	 68.186670	 6.694949	 1.331492	 28.938720	-2.729976	 176.276300	 3.985365	 26.292110	-5.021345	-16.106470	-6.475134	 3.075570	 69.439110	-1.836774	-1.305376	 28.580740	 2.600570	-1.025105	 3.352722	-2.124043	-1.630570	 3.521904	-1.214857	-1.673707	-2.136585	-0.644630	-113.447200	 5.117725	 92.998210	 47.462240	 41.162570	 5.295934	 5.053370	-0.234223	-0.572481	-20.096800	-5.685492	-15.757550	-6.580301	 5.266122	 0.000000	 0.000000	 0.000000	 0.000000	 0.000000	 0.000000	 0.000000	 3.844418	-0.677346	-0.254637	 3.263334	 1.200496	 1.414073	 114.203200	-4.411005	-88.495070	-64.278910	-3.256034	 43.594300	-91.202430	-2.232116	-1.741703	-16.433570	-26.253130	-28.532640	-0.359778	 10.582350	 0.744568	 11.977790	 9.317224	-2.096047	-8.359141	 3.150290	 0.104228
-0.000736	 1.273979	-0.008949	 0.032805	 3.215399	 178.715800	-176.657400	 2.813672	-23.123110	 2.981324	-14.758960	 2.815737	-5.568835	 68.013480	 6.691390	 1.331492	 28.938720	-2.729976	 176.262400	 3.973257	 26.510220	-5.018549	-16.098000	-6.491527	 3.032659	 69.279060	-1.790641	-1.305383	 28.580780	 2.598777	-0.997693	 3.354749	-2.610240	-1.626497	 3.529605	-1.204137	-1.676730	-2.151861	-0.641254	-113.447300	 5.113917	 92.997390	 47.238200	 41.304780	 5.473105	 5.275375	-0.234986	-0.770116	-20.041830	-6.066907	-15.969650	-6.580301	 5.266122	 0.000000	 0.000000	 0.000000	 0.000000	 0.000000	 0.000000	 0.000000	 3.850607	-0.691548	-0.256562	 3.286606	 1.208499	 1.400662	 114.202100	-4.403461	-88.500510	-64.049950	-3.556056	 43.017860	-91.907390	-2.223223	-1.570733	-16.893770	-25.989780	-28.457580	-0.359777	 10.582310	 0.744568	 11.977790	 9.317185	-2.096040	-8.359140	 3.150270	 0.104230
-0.000648	 1.274913	-0.009059	 0.045658	 3.217321	 178.689800	-176.606800	 2.804328	-23.381050	 2.983509	-14.769360	 2.804573	-5.566079	 67.841400	 6.692421	 1.331492	 28.938720	-2.729976	 176.251400	 3.960409	 26.724840	-5.015502	-16.088750	-6.510017	 2.985439	 69.121810	-1.739422	-1.305391	 28.580820	 2.596762	-0.967053	 3.356756	-3.156399	-1.623847	 3.536770	-1.192474	-1.679233	-2.168478	-0.637458	-113.447300	 5.109662	 92.996450	 46.961070	 41.495620	 5.689005	 5.522948	-0.235761	-0.992054	-19.967100	-6.527425	-16.217130	-6.580301	 5.266122	 0.000000	 0.000000	 0.000000	 0.000000	 0.000000	 0.000000	 0.000000	 3.857557	-0.707496	-0.258721	 3.312744	 1.217434	 1.385595	 114.200800	-4.394978	-88.506660	-63.827200	-3.876544	 42.351630	-92.774480	-2.212687	-1.381699	-17.355740	-25.713620	-28.411280	-0.359776	 10.582270	 0.744568	 11.977790	 9.317142	-2.096031	-8.359139	 3.150248	 0.104232
-0.000537	 1.275873	-0.009191	 0.060455	 3.219674	 178.660100	-176.551800	 2.793487	-23.649420	 2.985794	-14.780110	 2.791810	-5.568061	 67.663490	 6.697446	 1.331492	 28.938720	-2.729976	 176.243500	 3.945616	 26.943980	-5.011988	-16.078060	-6.531315	 2.931987	 68.961980	-1.681086	-1.305400	 28.580870	 2.594447	-0.931924	 3.358722	-3.784066	-1.623005	 3.543718	-1.179713	-1.681081	-2.186649	-0.633093	-113.447400	 5.104745	 92.995370	 46.608460	 41.749970	 5.962058	 5.808315	-0.236736	-1.246895	-19.866790	-7.092925	-16.514010	-6.580301	 5.266122	 0.000000	 0.000000	 0.000000	 0.000000	 0.000000	 0.000000	 0.000000	 3.865541	-0.725821	-0.261200	 3.342787	 1.227810	 1.368271	 114.199400	-4.385255	-88.513690	-63.617480	-4.233861	 41.565830	-93.851970	-2.199737	-1.167722	-17.818170	-25.417050	-28.399390	-0.359774	 10.582220	 0.744568	 11.977790	 9.317096	-2.096021	-8.359138	 3.150223	 0.104235
-0.000405	 1.276812	-0.009339	 0.076343	 3.222292	 178.627900	-176.495100	 2.781762	-23.915320	 2.988109	-14.791040	 2.777957	-5.575032	 67.488720	 6.706434	 1.331492	 28.938720	-2.729976	 176.239000	 3.930142	 27.156490	-5.008376	-16.067120	-6.554446	 2.874870	 68.807750	-1.618485	-1.305409	 28.580930	 2.591944	-0.894175	 3.360440	-4.462510	-1.624610	 3.550301	-1.166304	-1.681888	-2.206130	-0.628373	-113.447500	 5.099449	 92.994230	 46.187970	 42.062640	 6.284926	 6.116613	-0.237653	-1.522381	-19.741310	-7.744214	-16.846960	-6.580301	 5.266122	 0.000000	 0.000000	 0.000000	 0.000000	 0.000000	 0.000000	 0.000000	 3.874174	-0.745638	-0.263878	 3.375283	 1.238852	 1.349528	 114.197900	-4.374734	-88.521290	-63.447850	-4.616272	 40.695630	-95.096380	-2.184607	-0.939462	-18.240760	-25.115880	-28.428330	-0.359773	 10.582170	 0.744568	 11.977790	 9.317042	-2.096011	-8.359138	 3.150195	 0.104238
-0.000248	 1.277751	-0.009509	 0.093764	 3.224894	 178.593200	-176.435200	 2.769664	-24.184090	 2.990670	-14.803180	 2.762815	-5.587081	 67.313440	 6.719417	 1.331492	 28.938720	-2.729976	 176.237900	 3.912998	 27.368060	-5.004252	-16.054620	-6.579784	 2.813104	 68.655390	-1.550595	-1.305420	 28.580990	 2.589203	-0.852914	 3.361809	-5.205026	-1.629017	 3.554614	-1.152334	-1.681550	-2.225696	-0.623186	-113.447600	 5.093644	 92.992950	 45.682510	 42.444390	 6.671850	 6.454018	-0.238726	-1.823943	-19.585930	-8.499363	-17.225060	-6.580301	 5.266122	 0.000000	 0.000000	 0.000000	 0.000000	 0.000000	 0.000000	 0.000000	 3.883629	-0.767342	-0.266807	 3.410884	 1.251025	 1.328985	 114.196200	-4.363192	-88.529650	-63.332200	-5.039208	 39.721920	-96.531270	-2.166490	-0.692278	-18.619350	-24.804060	-28.501590	-0.359771	 10.582110	 0.744568	 11.977790	 9.316985	-2.095999	-8.359137	 3.150164	 0.104240
-0.000062	 1.278705	-0.009703	 0.112853	 3.228361	 178.554400	-176.371200	 2.755352	-24.460660	 2.993275	-14.815500	 2.746091	-5.604147	 67.134420	 6.736273	 1.331492	 28.938720	-2.729976	 176.240200	 3.893960	 27.580690	-4.999901	-16.041400	-6.607968	 2.745301	 68.503010	-1.475934	-1.305432	 28.581060	 2.586176	-0.807774	 3.362745	-6.023298	-1.636983	 3.559261	-1.137251	-1.679698	-2.247379	-0.617481	-113.447700	 5.087228	 92.991560	 45.072280	 42.906730	 7.138053	 6.825998	-0.239883	-2.156301	-19.395090	-9.377740	-17.656830	-6.580301	 5.266122	 0.000000	 0.000000	 0.000000	 0.000000	 0.000000	 0.000000	 0.000000	 3.894063	-0.791300	-0.270036	 3.450188	 1.264514	 1.306287	 114.194400	-4.350471	-88.538850	-63.292960	-5.519278	 38.625900	-98.176220	-2.144526	-0.421912	-18.946330	-24.475960	-28.623480	-0.359769	 10.582050	 0.744568	 11.977790	 9.316922	-2.095987	-8.359135	 3.150131	 0.104244
 0.000145	 1.279633	-0.009917	 0.132836	 3.231377	 178.513600	-176.305900	 2.740875	-24.733240	 2.995889	-14.827850	 2.728561	-5.625803	 66.959320	 6.756635	 1.331492	 28.938720	-2.729976	 176.246000	 3.874642	 27.785950	-4.995461	-16.027910	-6.637700	 2.674653	 68.357260	-1.397930	-1.305444	 28.581130	 2.582996	-0.760609	 3.363053	-6.881071	-1.648197	 3.560934	-1.121711	-1.676448	-2.268699	-0.611440	-113.447800	 5.080486	 92.990070	 44.374280	 43.431730	 7.673888	 7.217713	-0.241192	-2.505187	-19.177220	-10.343810	-18.126200	-6.580301	 5.266122	 0.000000	 0.000000	 0.000000	 0.000000	 0.000000	 0.000000	 0.000000	 3.905027	-0.816477	-0.273424	 3.491506	 1.278615	 1.282418	 114.192500	-4.337110	-88.548510	-63.353450	-6.045455	 37.454560	-99.945850	-2.119237	-0.139411	-19.200550	-24.142820	-28.787450	-0.359767	 10.581980	 0.744568	 11.977790	 9.316854	-2.095973	-8.359134	 3.150096	 0.104247
 0.000385	 1.280583	-0.010161	 0.154831	 3.235051	 178.468600	-176.235800	 2.724204	-25.015510	 2.998606	-14.840660	 2.709335	-5.652755	 66.779220	 6.781022	 1.331492	 28.938720	-2.729976	 176.255600	 3.852758	 27.994090	-4.990459	-16.012750	-6.670454	 2.597335	 68.210270	-1.312396	-1.305458	 28.581210	 2.579502	-0.709234	 3.362608	-7.820364	-1.663128	 3.561372	-1.104679	-1.671678	-2.291251	-0.604831	-113.447900	 5.073089	 92.988430	 43.547510	 44.045510	 8.310790	 7.646187	-0.242529	-2.888054	-18.920350	-11.448190	-18.655490	-6.580301	 5.266122	 0.000000	 0.000000	 0.000000	 0.000000	 0.000000	 0.000000	 0.000000	 3.917073	-0.844143	-0.277142	 3.536927	 1.293997	 1.256169	 114.190300	-4.322426	-88.559140	-63.541760	-6.653990	 36.148790	-101.905400	-2.088893	 0.170448	-19.394660	-23.784430	-28.998230	-0.359764	 10.581910	 0.744568	 11.977790	 9.316782	-2.095958	-8.359133	 3.150057	 0.104251
